<svg xmlns="http://www.w3.org/2000/svg" viewBox="0 0 1040 470" width="1040" height="470">
  <rect x="0" y="0" width="1040" height="470" fill="#0f172a"/>
  <text x="520.0" y="40" fill="#e2e8f0" font-family="sans-serif" font-size="22" font-weight="bold" text-anchor="middle">Families of distributions</text>
  <text x="155" y="78" fill="#38bdf8" font-family="sans-serif" font-size="17" font-weight="bold" text-anchor="middle">Debian</text>
  <text x="155" y="98" fill="#94a3b8" font-family="monospace" font-size="13" text-anchor="middle">apt, dpkg, .deb</text>
  <rect x="40" y="115" width="230" height="50" rx="10" fill="#1e293b" stroke="#38bdf8" stroke-width="2"/>
  <text x="155.0" y="137.0" fill="#e2e8f0" font-family="sans-serif" font-size="16" font-weight="bold" text-anchor="middle">Debian</text>
  <text x="155.0" y="157.0" fill="#94a3b8" font-family="sans-serif" font-size="13" text-anchor="middle">community</text>
  <line x1="155" y1="165" x2="155" y2="203" stroke="#38bdf8" stroke-width="2"/>
  <polygon points="155,215 149,203 161,203" fill="#38bdf8"/>
  <text x="165" y="194.0" fill="#38bdf8" font-family="monospace" font-size="12">built on</text>
  <rect x="40" y="215" width="230" height="50" rx="10" fill="#1e293b" stroke="#38bdf8" stroke-width="2"/>
  <text x="155.0" y="237.0" fill="#e2e8f0" font-family="sans-serif" font-size="16" font-weight="bold" text-anchor="middle">Ubuntu</text>
  <text x="155.0" y="257.0" fill="#94a3b8" font-family="sans-serif" font-size="13" text-anchor="middle">Canonical</text>
  <text x="520" y="78" fill="#4ade80" font-family="sans-serif" font-size="17" font-weight="bold" text-anchor="middle">Red Hat</text>
  <text x="520" y="98" fill="#94a3b8" font-family="monospace" font-size="13" text-anchor="middle">dnf, rpm, .rpm</text>
  <rect x="405" y="115" width="230" height="50" rx="10" fill="#1e293b" stroke="#4ade80" stroke-width="2"/>
  <text x="520.0" y="137.0" fill="#e2e8f0" font-family="sans-serif" font-size="16" font-weight="bold" text-anchor="middle">Fedora</text>
  <text x="520.0" y="157.0" fill="#94a3b8" font-family="sans-serif" font-size="13" text-anchor="middle">community</text>
  <line x1="520" y1="165" x2="520" y2="203" stroke="#4ade80" stroke-width="2"/>
  <polygon points="520,215 514,203 526,203" fill="#4ade80"/>
  <text x="530" y="194.0" fill="#4ade80" font-family="monospace" font-size="12">upstream of</text>
  <rect x="405" y="215" width="230" height="50" rx="10" fill="#1e293b" stroke="#4ade80" stroke-width="2"/>
  <text x="520.0" y="237.0" fill="#e2e8f0" font-family="sans-serif" font-size="16" font-weight="bold" text-anchor="middle">CentOS Stream</text>
  <text x="520.0" y="257.0" fill="#94a3b8" font-family="sans-serif" font-size="13" text-anchor="middle">development branch of RHEL</text>
  <line x1="520" y1="265" x2="520" y2="303" stroke="#4ade80" stroke-width="2"/>
  <polygon points="520,315 514,303 526,303" fill="#4ade80"/>
  <text x="530" y="294.0" fill="#4ade80" font-family="monospace" font-size="12">upstream of</text>
  <rect x="405" y="315" width="230" height="50" rx="10" fill="#1e293b" stroke="#4ade80" stroke-width="2"/>
  <text x="520.0" y="337.0" fill="#e2e8f0" font-family="sans-serif" font-size="16" font-weight="bold" text-anchor="middle">RHEL</text>
  <text x="520.0" y="357.0" fill="#94a3b8" font-family="sans-serif" font-size="13" text-anchor="middle">subscription</text>
  <text x="885" y="78" fill="#a78bfa" font-family="sans-serif" font-size="17" font-weight="bold" text-anchor="middle">SUSE</text>
  <text x="885" y="98" fill="#94a3b8" font-family="monospace" font-size="13" text-anchor="middle">zypper, rpm, .rpm</text>
  <rect x="770" y="115" width="230" height="50" rx="10" fill="#1e293b" stroke="#a78bfa" stroke-width="2"/>
  <text x="885.0" y="137.0" fill="#e2e8f0" font-family="sans-serif" font-size="16" font-weight="bold" text-anchor="middle">openSUSE</text>
  <text x="885.0" y="157.0" fill="#94a3b8" font-family="sans-serif" font-size="13" text-anchor="middle">Leap, Tumbleweed</text>
  <rect x="770" y="215" width="230" height="50" rx="10" fill="#1e293b" stroke="#a78bfa" stroke-width="2"/>
  <text x="885.0" y="237.0" fill="#e2e8f0" font-family="sans-serif" font-size="16" font-weight="bold" text-anchor="middle">SLES</text>
  <text x="885.0" y="257.0" fill="#94a3b8" font-family="sans-serif" font-size="13" text-anchor="middle">subscription</text>
  <rect x="395" y="395" width="120" height="50" rx="10" fill="#1e293b" stroke="#4ade80" stroke-width="2" stroke-dasharray="6 4"/>
  <text x="455" y="417" fill="#e2e8f0" font-family="sans-serif" font-size="15" font-weight="bold" text-anchor="middle">AlmaLinux</text>
  <text x="455" y="435" fill="#94a3b8" font-family="sans-serif" font-size="12" text-anchor="middle">free</text>
  <rect x="525" y="395" width="120" height="50" rx="10" fill="#1e293b" stroke="#4ade80" stroke-width="2" stroke-dasharray="6 4"/>
  <text x="585" y="417" fill="#e2e8f0" font-family="sans-serif" font-size="15" font-weight="bold" text-anchor="middle">Rocky Linux</text>
  <text x="585" y="435" fill="#94a3b8" font-family="sans-serif" font-size="12" text-anchor="middle">free</text>
  <line x1="455" y1="395" x2="455" y2="377" stroke="#4ade80" stroke-width="2" stroke-dasharray="6 4"/>
  <polygon points="455,367 449,379 461,379" fill="#4ade80"/>
  <line x1="585" y1="395" x2="585" y2="377" stroke="#4ade80" stroke-width="2" stroke-dasharray="6 4"/>
  <polygon points="585,367 579,379 591,379" fill="#4ade80"/>
  <text x="520" y="385" fill="#4ade80" font-family="monospace" font-size="12" text-anchor="middle">compatible with</text>
</svg>
